<svg width="60" height="60" viewBox="0 0 60 60" fill="none" xmlns="http://www.w3.org/2000/svg">
<g clip-path="url(#clip0_406480_3862)">
<path d="M24.2578 30C24.2578 33.1714 26.8286 35.7422 30 35.7422C33.1714 35.7422 35.7422 33.1714 35.7422 30C35.7422 26.8286 33.1714 24.2578 30 24.2578C26.8286 24.2578 24.2578 26.8286 24.2578 30Z" fill="#7C7C7C"/>
<path d="M16.571 19.8398C16.8471 19.0918 17.2874 18.4148 17.8596 17.8591C18.4154 17.2869 19.0919 16.8465 19.8404 16.5705C20.4474 16.3347 21.3593 16.0541 23.0388 15.9777C24.8557 15.8948 25.4004 15.877 30 15.877C34.6001 15.877 35.1448 15.8943 36.9612 15.9772C38.6407 16.0541 39.5531 16.3347 40.1596 16.5705C40.9081 16.8465 41.5851 17.2869 42.1404 17.8591C42.7126 18.4148 43.1529 19.0914 43.4294 19.8398C43.6652 20.4468 43.9458 21.3591 44.0222 23.0387C44.1051 24.8551 44.1229 25.3998 44.1229 29.9999C44.1229 34.5995 44.1051 35.1442 44.0222 36.9611C43.9458 38.6406 43.6652 39.5525 43.4294 40.1595C43.1529 40.9079 42.713 41.5845 42.1408 42.1402C41.5851 42.7124 40.9085 43.1528 40.1601 43.4288C39.5531 43.665 38.6407 43.9457 36.9612 44.0221C35.1448 44.105 34.6005 44.1223 30.0005 44.1223C25.3999 44.1223 24.8552 44.105 23.0392 44.0221C21.3597 43.9457 20.4474 43.665 19.8404 43.4288C18.338 42.8493 17.1506 41.6619 16.571 40.1595C16.3353 39.5525 16.0547 38.6406 15.9778 36.9611C15.8949 35.1442 15.8775 34.5995 15.8775 29.9999C15.8775 25.3998 15.8949 24.8551 15.9778 23.0387C16.0542 21.3591 16.3348 20.4468 16.571 19.8398ZM30 38.8452C34.8857 38.8452 38.8463 34.8851 38.8463 29.9994C38.8463 25.1137 34.8857 21.1536 30 21.1536C25.1147 21.1536 21.1542 25.1137 21.1542 29.9994C21.1542 34.8851 25.1147 38.8452 30 38.8452ZM20.8044 22.8711C21.9461 22.8711 22.8717 21.9455 22.8717 20.8039C22.8717 19.6622 21.9461 18.7366 20.8044 18.7366C19.6628 18.7366 18.7372 19.6622 18.7372 20.8039C18.7376 21.9455 19.6628 22.8711 20.8044 22.8711Z" fill="#7C7C7C"/>
<path d="M30 0C46.566 0 60 13.434 60 30C60 46.566 46.566 60 30 60C13.434 60 0 46.566 0 30C0 13.434 13.434 0 30 0ZM12.8773 37.1022C12.9607 38.936 13.2523 40.188 13.678 41.2839C14.5729 43.5979 16.4021 45.4271 18.7161 46.322C19.8116 46.7477 21.064 47.0389 22.8973 47.1227C24.7343 47.2064 25.3212 47.2266 29.9995 47.2266C34.6783 47.2266 35.2647 47.2064 37.1022 47.1227C38.9355 47.0389 40.188 46.7477 41.2834 46.322C42.4333 45.8894 43.4743 45.2115 44.3349 44.3349C45.211 43.4747 45.889 42.4333 46.3216 41.2839C46.7473 40.1884 47.0389 38.936 47.1222 37.1027C47.2069 35.2652 47.2266 34.6783 47.2266 30C47.2266 25.3217 47.2069 24.7348 47.1227 22.8978C47.0393 21.064 46.7482 19.812 46.3225 18.7161C45.8899 17.5667 45.2115 16.5253 44.3349 15.6651C43.4747 14.7885 42.4333 14.1106 41.2839 13.678C40.188 13.2523 38.936 12.9611 37.1022 12.8773C35.2652 12.7936 34.6783 12.7734 30 12.7734C25.3217 12.7734 24.7348 12.7936 22.8978 12.8778C21.064 12.9611 19.812 13.2523 18.7161 13.6775C17.5667 14.1101 16.5253 14.7885 15.6647 15.6651C14.7885 16.5257 14.1101 17.5667 13.678 18.7161C13.2518 19.812 12.9607 21.064 12.8769 22.8978C12.7931 24.7348 12.7734 25.3217 12.7734 30C12.7734 34.6783 12.7931 35.2652 12.8773 37.1022Z" fill="#7C7C7C"/>
</g>
<defs>
<clipPath id="clip0_406480_3862">
<rect width="60" height="60" fill="white" transform="matrix(-1 0 0 1 60 0)"/>
</clipPath>
</defs>
</svg>
